<mxfile host="Electron" modified="2024-06-13T15:59:24.133Z" agent="Mozilla/5.0 (Windows NT 10.0; Win64; x64) AppleWebKit/537.36 (KHTML, like Gecko) draw.io/21.6.5 Chrome/114.0.5735.243 Electron/25.3.1 Safari/537.36" etag="aib7EzsYxD89FKwIaa2Y" version="21.6.5" type="device">
  <diagram name="Page-1" id="utwuaK8J5crHx3elVbEk">
    <mxGraphModel dx="1036" dy="623" grid="1" gridSize="10" guides="1" tooltips="1" connect="1" arrows="1" fold="1" page="1" pageScale="1" pageWidth="827" pageHeight="1169" math="0" shadow="0">
      <root>
        <mxCell id="0" />
        <mxCell id="1" parent="0" />
        <mxCell id="K85xil1c-Bjuz0kbStLv-4" value="" style="edgeStyle=orthogonalEdgeStyle;rounded=0;orthogonalLoop=1;jettySize=auto;html=1;fontSize=16;" parent="1" source="K85xil1c-Bjuz0kbStLv-1" target="K85xil1c-Bjuz0kbStLv-2" edge="1">
          <mxGeometry relative="1" as="geometry" />
        </mxCell>
        <mxCell id="K85xil1c-Bjuz0kbStLv-1" value="&lt;b style=&quot;font-size: 16px;&quot;&gt;START&lt;/b&gt;" style="strokeWidth=2;html=1;shape=mxgraph.flowchart.terminator;whiteSpace=wrap;fontSize=16;" parent="1" vertex="1">
          <mxGeometry x="89" y="20" width="106" height="60" as="geometry" />
        </mxCell>
        <mxCell id="K85xil1c-Bjuz0kbStLv-5" value="" style="edgeStyle=orthogonalEdgeStyle;rounded=0;orthogonalLoop=1;jettySize=auto;html=1;fontSize=16;" parent="1" source="K85xil1c-Bjuz0kbStLv-2" target="K85xil1c-Bjuz0kbStLv-3" edge="1">
          <mxGeometry relative="1" as="geometry" />
        </mxCell>
        <mxCell id="K85xil1c-Bjuz0kbStLv-2" value="Initialize actuator, sensors, &amp;amp; camera" style="rounded=1;whiteSpace=wrap;html=1;absoluteArcSize=1;arcSize=14;strokeWidth=2;fontSize=16;" parent="1" vertex="1">
          <mxGeometry x="54" y="119.99999999999997" width="176" height="59.92" as="geometry" />
        </mxCell>
        <mxCell id="K85xil1c-Bjuz0kbStLv-11" style="edgeStyle=orthogonalEdgeStyle;rounded=0;orthogonalLoop=1;jettySize=auto;html=1;entryX=0.5;entryY=0;entryDx=0;entryDy=0;entryPerimeter=0;fontSize=16;" parent="1" source="K85xil1c-Bjuz0kbStLv-3" target="K85xil1c-Bjuz0kbStLv-3" edge="1">
          <mxGeometry relative="1" as="geometry">
            <mxPoint x="269" y="210.04" as="targetPoint" />
            <Array as="points">
              <mxPoint x="259" y="300.04" />
              <mxPoint x="259" y="210.04" />
              <mxPoint x="142" y="210.04" />
            </Array>
          </mxGeometry>
        </mxCell>
        <mxCell id="K85xil1c-Bjuz0kbStLv-14" value="" style="edgeStyle=orthogonalEdgeStyle;rounded=0;orthogonalLoop=1;jettySize=auto;html=1;fontSize=16;" parent="1" source="K85xil1c-Bjuz0kbStLv-3" target="K85xil1c-Bjuz0kbStLv-13" edge="1">
          <mxGeometry relative="1" as="geometry" />
        </mxCell>
        <mxCell id="K85xil1c-Bjuz0kbStLv-3" value="Is connected&lt;br style=&quot;font-size: 16px;&quot;&gt;to WiFi?" style="strokeWidth=2;html=1;shape=mxgraph.flowchart.decision;whiteSpace=wrap;fontSize=16;" parent="1" vertex="1">
          <mxGeometry x="73.5" y="230.04" width="137" height="140" as="geometry" />
        </mxCell>
        <mxCell id="K85xil1c-Bjuz0kbStLv-12" value="No" style="text;html=1;align=center;verticalAlign=middle;resizable=0;points=[];autosize=1;strokeColor=none;fillColor=none;fontSize=16;" parent="1" vertex="1">
          <mxGeometry x="210.5" y="270.04" width="40" height="30" as="geometry" />
        </mxCell>
        <mxCell id="K85xil1c-Bjuz0kbStLv-19" value="" style="edgeStyle=orthogonalEdgeStyle;rounded=0;orthogonalLoop=1;jettySize=auto;html=1;fontSize=16;" parent="1" source="K85xil1c-Bjuz0kbStLv-13" target="K85xil1c-Bjuz0kbStLv-17" edge="1">
          <mxGeometry relative="1" as="geometry" />
        </mxCell>
        <mxCell id="K85xil1c-Bjuz0kbStLv-13" value="Initialize date-time camera web server" style="rounded=1;whiteSpace=wrap;html=1;absoluteArcSize=1;arcSize=14;strokeWidth=2;fontSize=16;" parent="1" vertex="1">
          <mxGeometry x="50" y="410.04" width="184" height="60" as="geometry" />
        </mxCell>
        <mxCell id="K85xil1c-Bjuz0kbStLv-15" value="Yes" style="text;html=1;align=center;verticalAlign=middle;resizable=0;points=[];autosize=1;strokeColor=none;fillColor=none;fontSize=16;" parent="1" vertex="1">
          <mxGeometry x="139" y="370.04" width="50" height="30" as="geometry" />
        </mxCell>
        <mxCell id="K85xil1c-Bjuz0kbStLv-24" value="" style="edgeStyle=orthogonalEdgeStyle;rounded=0;orthogonalLoop=1;jettySize=auto;html=1;" parent="1" source="K85xil1c-Bjuz0kbStLv-17" target="K85xil1c-Bjuz0kbStLv-23" edge="1">
          <mxGeometry relative="1" as="geometry" />
        </mxCell>
        <mxCell id="K85xil1c-Bjuz0kbStLv-68" value="" style="edgeStyle=orthogonalEdgeStyle;rounded=0;orthogonalLoop=1;jettySize=auto;html=1;" parent="1" source="K85xil1c-Bjuz0kbStLv-17" target="K85xil1c-Bjuz0kbStLv-67" edge="1">
          <mxGeometry relative="1" as="geometry" />
        </mxCell>
        <mxCell id="K85xil1c-Bjuz0kbStLv-17" value="Is&lt;br style=&quot;font-size: 16px;&quot;&gt;Î”time = 10&lt;br style=&quot;font-size: 16px;&quot;&gt;sec?" style="strokeWidth=2;html=1;shape=mxgraph.flowchart.decision;whiteSpace=wrap;fontSize=16;" parent="1" vertex="1">
          <mxGeometry x="82" y="510.03999999999996" width="120" height="120" as="geometry" />
        </mxCell>
        <mxCell id="K85xil1c-Bjuz0kbStLv-22" value="Yes" style="text;html=1;align=center;verticalAlign=middle;resizable=0;points=[];autosize=1;strokeColor=none;fillColor=none;fontSize=16;" parent="1" vertex="1">
          <mxGeometry x="139" y="630.02" width="50" height="30" as="geometry" />
        </mxCell>
        <mxCell id="K85xil1c-Bjuz0kbStLv-23" value="b" style="strokeWidth=2;html=1;shape=mxgraph.flowchart.start_2;whiteSpace=wrap;fontSize=16;" parent="1" vertex="1">
          <mxGeometry x="240" y="550.04" width="40" height="40" as="geometry" />
        </mxCell>
        <mxCell id="K85xil1c-Bjuz0kbStLv-25" value="No" style="text;html=1;align=center;verticalAlign=middle;resizable=0;points=[];autosize=1;strokeColor=none;fillColor=none;fontSize=16;" parent="1" vertex="1">
          <mxGeometry x="200" y="540.04" width="40" height="30" as="geometry" />
        </mxCell>
        <mxCell id="K85xil1c-Bjuz0kbStLv-27" value="a" style="strokeWidth=2;html=1;shape=mxgraph.flowchart.start_2;whiteSpace=wrap;fontSize=16;" parent="1" vertex="1">
          <mxGeometry x="122" y="770" width="40" height="40" as="geometry" />
        </mxCell>
        <mxCell id="K85xil1c-Bjuz0kbStLv-79" value="" style="edgeStyle=orthogonalEdgeStyle;rounded=0;orthogonalLoop=1;jettySize=auto;html=1;" parent="1" source="K85xil1c-Bjuz0kbStLv-29" target="K85xil1c-Bjuz0kbStLv-78" edge="1">
          <mxGeometry relative="1" as="geometry" />
        </mxCell>
        <mxCell id="K85xil1c-Bjuz0kbStLv-29" value="Set fan and heater&lt;br&gt;based on Fuzzy calculation value" style="rounded=1;whiteSpace=wrap;html=1;absoluteArcSize=1;arcSize=14;strokeWidth=2;fontSize=16;" parent="1" vertex="1">
          <mxGeometry x="329" y="205" width="149" height="70" as="geometry" />
        </mxCell>
        <mxCell id="K85xil1c-Bjuz0kbStLv-35" value="" style="edgeStyle=orthogonalEdgeStyle;rounded=0;orthogonalLoop=1;jettySize=auto;html=1;" parent="1" source="K85xil1c-Bjuz0kbStLv-31" target="K85xil1c-Bjuz0kbStLv-34" edge="1">
          <mxGeometry relative="1" as="geometry" />
        </mxCell>
        <mxCell id="K85xil1c-Bjuz0kbStLv-31" value="Take a picture" style="rounded=1;whiteSpace=wrap;html=1;absoluteArcSize=1;arcSize=14;strokeWidth=2;fontSize=16;" parent="1" vertex="1">
          <mxGeometry x="359" y="410" width="90" height="49.96" as="geometry" />
        </mxCell>
        <mxCell id="K85xil1c-Bjuz0kbStLv-37" value="" style="edgeStyle=orthogonalEdgeStyle;rounded=0;orthogonalLoop=1;jettySize=auto;html=1;" parent="1" source="K85xil1c-Bjuz0kbStLv-34" target="K85xil1c-Bjuz0kbStLv-36" edge="1">
          <mxGeometry relative="1" as="geometry" />
        </mxCell>
        <mxCell id="K85xil1c-Bjuz0kbStLv-46" value="" style="edgeStyle=orthogonalEdgeStyle;rounded=0;orthogonalLoop=1;jettySize=auto;html=1;" parent="1" source="K85xil1c-Bjuz0kbStLv-34" target="K85xil1c-Bjuz0kbStLv-45" edge="1">
          <mxGeometry relative="1" as="geometry" />
        </mxCell>
        <mxCell id="K85xil1c-Bjuz0kbStLv-34" value="Is face&lt;br&gt;detected?" style="strokeWidth=2;html=1;shape=mxgraph.flowchart.decision;whiteSpace=wrap;fontSize=16;" parent="1" vertex="1">
          <mxGeometry x="344" y="499.02000000000004" width="120" height="120" as="geometry" />
        </mxCell>
        <mxCell id="K85xil1c-Bjuz0kbStLv-41" value="" style="edgeStyle=orthogonalEdgeStyle;rounded=0;orthogonalLoop=1;jettySize=auto;html=1;" parent="1" source="K85xil1c-Bjuz0kbStLv-36" target="K85xil1c-Bjuz0kbStLv-40" edge="1">
          <mxGeometry relative="1" as="geometry" />
        </mxCell>
        <mxCell id="K85xil1c-Bjuz0kbStLv-36" value="Highlight the face" style="rounded=1;whiteSpace=wrap;html=1;absoluteArcSize=1;arcSize=14;strokeWidth=2;fontSize=16;" parent="1" vertex="1">
          <mxGeometry x="359" y="659.02" width="90" height="60" as="geometry" />
        </mxCell>
        <mxCell id="K85xil1c-Bjuz0kbStLv-59" value="" style="edgeStyle=orthogonalEdgeStyle;rounded=0;orthogonalLoop=1;jettySize=auto;html=1;" parent="1" source="K85xil1c-Bjuz0kbStLv-38" target="K85xil1c-Bjuz0kbStLv-56" edge="1">
          <mxGeometry relative="1" as="geometry" />
        </mxCell>
        <mxCell id="K85xil1c-Bjuz0kbStLv-38" value="Find the coordinates of the midpoint of the highlighted face" style="rounded=1;whiteSpace=wrap;html=1;absoluteArcSize=1;arcSize=14;strokeWidth=2;fontSize=16;" parent="1" vertex="1">
          <mxGeometry x="600" y="320.0799999999999" width="180" height="70" as="geometry" />
        </mxCell>
        <mxCell id="K85xil1c-Bjuz0kbStLv-40" value="c" style="strokeWidth=2;html=1;shape=mxgraph.flowchart.start_2;whiteSpace=wrap;fontSize=16;" parent="1" vertex="1">
          <mxGeometry x="384" y="749.02" width="40" height="40" as="geometry" />
        </mxCell>
        <mxCell id="K85xil1c-Bjuz0kbStLv-44" value="" style="edgeStyle=orthogonalEdgeStyle;rounded=0;orthogonalLoop=1;jettySize=auto;html=1;" parent="1" source="K85xil1c-Bjuz0kbStLv-43" target="K85xil1c-Bjuz0kbStLv-38" edge="1">
          <mxGeometry relative="1" as="geometry" />
        </mxCell>
        <mxCell id="K85xil1c-Bjuz0kbStLv-43" value="c" style="strokeWidth=2;html=1;shape=mxgraph.flowchart.start_2;whiteSpace=wrap;fontSize=16;" parent="1" vertex="1">
          <mxGeometry x="550" y="265.04" width="40" height="40" as="geometry" />
        </mxCell>
        <mxCell id="K85xil1c-Bjuz0kbStLv-45" value="d" style="strokeWidth=2;html=1;shape=mxgraph.flowchart.start_2;whiteSpace=wrap;fontSize=16;" parent="1" vertex="1">
          <mxGeometry x="509" y="539.02" width="40" height="40" as="geometry" />
        </mxCell>
        <mxCell id="K85xil1c-Bjuz0kbStLv-47" value="No" style="text;html=1;align=center;verticalAlign=middle;resizable=0;points=[];autosize=1;strokeColor=none;fillColor=none;fontSize=16;" parent="1" vertex="1">
          <mxGeometry x="464" y="529.02" width="40" height="30" as="geometry" />
        </mxCell>
        <mxCell id="K85xil1c-Bjuz0kbStLv-84" style="edgeStyle=orthogonalEdgeStyle;rounded=0;orthogonalLoop=1;jettySize=auto;html=1;entryX=0.5;entryY=0;entryDx=0;entryDy=0;" parent="1" source="K85xil1c-Bjuz0kbStLv-49" target="K85xil1c-Bjuz0kbStLv-31" edge="1">
          <mxGeometry relative="1" as="geometry" />
        </mxCell>
        <mxCell id="K85xil1c-Bjuz0kbStLv-49" value="b" style="strokeWidth=2;html=1;shape=mxgraph.flowchart.start_2;whiteSpace=wrap;fontSize=16;" parent="1" vertex="1">
          <mxGeometry x="280" y="370.03999999999996" width="40" height="40" as="geometry" />
        </mxCell>
        <mxCell id="K85xil1c-Bjuz0kbStLv-51" value="Yes" style="text;html=1;align=center;verticalAlign=middle;resizable=0;points=[];autosize=1;strokeColor=none;fillColor=none;fontSize=16;" parent="1" vertex="1">
          <mxGeometry x="403" y="619.02" width="50" height="30" as="geometry" />
        </mxCell>
        <mxCell id="K85xil1c-Bjuz0kbStLv-52" value="&lt;b style=&quot;font-size: 16px;&quot;&gt;END&lt;/b&gt;" style="strokeWidth=2;html=1;shape=mxgraph.flowchart.terminator;whiteSpace=wrap;fontSize=16;" parent="1" vertex="1">
          <mxGeometry x="637" y="650.04" width="106" height="60" as="geometry" />
        </mxCell>
        <mxCell id="K85xil1c-Bjuz0kbStLv-64" value="" style="edgeStyle=orthogonalEdgeStyle;rounded=0;orthogonalLoop=1;jettySize=auto;html=1;" parent="1" source="K85xil1c-Bjuz0kbStLv-54" target="K85xil1c-Bjuz0kbStLv-63" edge="1">
          <mxGeometry relative="1" as="geometry" />
        </mxCell>
        <mxCell id="K85xil1c-Bjuz0kbStLv-54" value="Send a picture with&amp;nbsp;highlighted face to camera web server" style="rounded=1;whiteSpace=wrap;html=1;absoluteArcSize=1;arcSize=14;strokeWidth=2;fontSize=16;" parent="1" vertex="1">
          <mxGeometry x="600" y="120" width="180" height="70" as="geometry" />
        </mxCell>
        <mxCell id="K85xil1c-Bjuz0kbStLv-62" value="" style="edgeStyle=orthogonalEdgeStyle;rounded=0;orthogonalLoop=1;jettySize=auto;html=1;" parent="1" source="K85xil1c-Bjuz0kbStLv-55" target="K85xil1c-Bjuz0kbStLv-54" edge="1">
          <mxGeometry relative="1" as="geometry" />
        </mxCell>
        <mxCell id="K85xil1c-Bjuz0kbStLv-55" value="d" style="strokeWidth=2;html=1;shape=mxgraph.flowchart.start_2;whiteSpace=wrap;fontSize=16;" parent="1" vertex="1">
          <mxGeometry x="670" y="39.99999999999994" width="40" height="40" as="geometry" />
        </mxCell>
        <mxCell id="K85xil1c-Bjuz0kbStLv-60" value="" style="edgeStyle=orthogonalEdgeStyle;rounded=0;orthogonalLoop=1;jettySize=auto;html=1;" parent="1" source="K85xil1c-Bjuz0kbStLv-56" target="K85xil1c-Bjuz0kbStLv-57" edge="1">
          <mxGeometry relative="1" as="geometry" />
        </mxCell>
        <mxCell id="K85xil1c-Bjuz0kbStLv-56" value="Set the servo according&lt;br&gt;to the highlighted face coordinates" style="rounded=1;whiteSpace=wrap;html=1;absoluteArcSize=1;arcSize=14;strokeWidth=2;fontSize=16;" parent="1" vertex="1">
          <mxGeometry x="590" y="430.0799999999999" width="200" height="70" as="geometry" />
        </mxCell>
        <mxCell id="K85xil1c-Bjuz0kbStLv-61" value="" style="edgeStyle=orthogonalEdgeStyle;rounded=0;orthogonalLoop=1;jettySize=auto;html=1;" parent="1" source="K85xil1c-Bjuz0kbStLv-57" target="K85xil1c-Bjuz0kbStLv-52" edge="1">
          <mxGeometry relative="1" as="geometry" />
        </mxCell>
        <mxCell id="K85xil1c-Bjuz0kbStLv-57" value="Send the picture with&amp;nbsp;highlighted face to camera web server" style="rounded=1;whiteSpace=wrap;html=1;absoluteArcSize=1;arcSize=14;strokeWidth=2;fontSize=16;" parent="1" vertex="1">
          <mxGeometry x="600" y="540.04" width="180" height="70" as="geometry" />
        </mxCell>
        <mxCell id="K85xil1c-Bjuz0kbStLv-63" value="e" style="strokeWidth=2;html=1;shape=mxgraph.flowchart.start_2;whiteSpace=wrap;fontSize=16;" parent="1" vertex="1">
          <mxGeometry x="670" y="220.00000000000003" width="40" height="40" as="geometry" />
        </mxCell>
        <mxCell id="K85xil1c-Bjuz0kbStLv-86" style="edgeStyle=orthogonalEdgeStyle;rounded=0;orthogonalLoop=1;jettySize=auto;html=1;entryX=0.5;entryY=0;entryDx=0;entryDy=0;entryPerimeter=0;" parent="1" source="K85xil1c-Bjuz0kbStLv-65" target="K85xil1c-Bjuz0kbStLv-52" edge="1">
          <mxGeometry relative="1" as="geometry" />
        </mxCell>
        <mxCell id="K85xil1c-Bjuz0kbStLv-65" value="e" style="strokeWidth=2;html=1;shape=mxgraph.flowchart.start_2;whiteSpace=wrap;fontSize=16;" parent="1" vertex="1">
          <mxGeometry x="549" y="610.04" width="40" height="40" as="geometry" />
        </mxCell>
        <mxCell id="K85xil1c-Bjuz0kbStLv-75" value="" style="edgeStyle=orthogonalEdgeStyle;rounded=0;orthogonalLoop=1;jettySize=auto;html=1;" parent="1" source="K85xil1c-Bjuz0kbStLv-66" target="K85xil1c-Bjuz0kbStLv-29" edge="1">
          <mxGeometry relative="1" as="geometry" />
        </mxCell>
        <mxCell id="K85xil1c-Bjuz0kbStLv-66" value="Calculate Fuzzy value" style="rounded=1;whiteSpace=wrap;html=1;absoluteArcSize=1;arcSize=14;strokeWidth=2;fontSize=16;" parent="1" vertex="1">
          <mxGeometry x="334" y="120" width="140" height="49.96" as="geometry" />
        </mxCell>
        <mxCell id="K85xil1c-Bjuz0kbStLv-70" value="" style="edgeStyle=orthogonalEdgeStyle;rounded=0;orthogonalLoop=1;jettySize=auto;html=1;" parent="1" source="K85xil1c-Bjuz0kbStLv-67" target="K85xil1c-Bjuz0kbStLv-27" edge="1">
          <mxGeometry relative="1" as="geometry" />
        </mxCell>
        <mxCell id="K85xil1c-Bjuz0kbStLv-67" value="Data acquisition from temperature, humidity, and PM2.5 sensors" style="rounded=1;whiteSpace=wrap;html=1;absoluteArcSize=1;arcSize=14;strokeWidth=2;fontSize=16;" parent="1" vertex="1">
          <mxGeometry x="37" y="670" width="210" height="70" as="geometry" />
        </mxCell>
        <mxCell id="K85xil1c-Bjuz0kbStLv-74" value="" style="edgeStyle=orthogonalEdgeStyle;rounded=0;orthogonalLoop=1;jettySize=auto;html=1;" parent="1" source="K85xil1c-Bjuz0kbStLv-72" target="K85xil1c-Bjuz0kbStLv-66" edge="1">
          <mxGeometry relative="1" as="geometry" />
        </mxCell>
        <mxCell id="K85xil1c-Bjuz0kbStLv-72" value="a" style="strokeWidth=2;html=1;shape=mxgraph.flowchart.start_2;whiteSpace=wrap;fontSize=16;" parent="1" vertex="1">
          <mxGeometry x="384" y="40" width="40" height="40" as="geometry" />
        </mxCell>
        <mxCell id="K85xil1c-Bjuz0kbStLv-83" style="edgeStyle=orthogonalEdgeStyle;rounded=0;orthogonalLoop=1;jettySize=auto;html=1;entryX=0.5;entryY=0;entryDx=0;entryDy=0;" parent="1" source="K85xil1c-Bjuz0kbStLv-78" target="K85xil1c-Bjuz0kbStLv-31" edge="1">
          <mxGeometry relative="1" as="geometry" />
        </mxCell>
        <mxCell id="K85xil1c-Bjuz0kbStLv-78" value="Send data to the database server" style="rounded=1;whiteSpace=wrap;html=1;absoluteArcSize=1;arcSize=14;strokeWidth=2;fontSize=16;" parent="1" vertex="1">
          <mxGeometry x="329.5" y="310.08000000000004" width="149" height="59.96" as="geometry" />
        </mxCell>
      </root>
    </mxGraphModel>
  </diagram>
</mxfile>
